<svg xmlns:inkscape="http://www.inkscape.org/namespaces/inkscape" xmlns:sodipodi="http://sodipodi.sourceforge.net/DTD/sodipodi-0.dtd" xmlns="http://www.w3.org/2000/svg" xmlns:svg="http://www.w3.org/2000/svg" id="svg2" width="1020.16" height="279.35999" viewBox="0 0 1020.16 279.35999" sodipodi:docname="narbulut-logo-full-blue.svg" inkscape:version="1.2.2 (732a01da63, 2022-12-09)"><defs id="defs6"></defs><g inkscape:groupmode="layer" inkscape:label="Image" id="g8"><g id="g293"><path style="fill:#35b0dd;fill-opacity:1;stroke-width:0.32" d="m 128.71364,279.05611 c -0.57549,-0.14184 -1.58349,-0.63117 -2.24,-1.08739 -0.6565,-0.45623 -9.34736,-9.00583 -19.31303,-18.99912 -19.788876,-19.84373 -19.444012,-19.43372 -19.077887,-22.68198 0.211194,-1.87369 1.57961,-3.8525 3.277277,-4.73913 1.172589,-0.6124 1.964742,-0.68193 9.44,-0.8285 8.86819,-0.17388 9.16227,-0.23128 10.9209,-2.13143 1.82199,-1.9686 1.70626,0.49135 1.87941,-39.94857 l 0.16031,-37.44 0.75665,-2.24 c 2.87935,-8.52409 8.72933,-14.14269 17.21373,-16.53286 3.22339,-0.90808 8.82523,-0.97376 11.949,-0.14011 4.55948,1.21681 6.39,2.43972 29.44,19.66794 l 22.24,16.62281 0.0881,-25.96889 c 0.0484,-14.28288 0.0101,-26.29106 -0.0851,-26.68484 -0.0952,-0.39377 -0.55995,-0.96977 -1.03272,-1.28 -0.75687,-0.49665 -1.99574,-0.58316 -10.36823,-0.72404 l -9.50866,-0.16 -1.38669,-0.96429 c -2.50108,-1.73921 -3.4799,-4.99395 -2.33553,-7.76599 0.60939,-1.47616 37.15162,-38.201454 38.9361,-39.131166 1.4111,-0.73518 3.9795,-0.815689 5.46303,-0.171248 0.59241,0.257348 9.13935,8.581114 20.12549,19.6 17.24641,17.297814 19.13164,19.289334 19.46606,20.563644 0.85328,3.25143 -1.17115,6.79507 -4.39308,7.6898 -0.71717,0.19916 -5.11295,0.33832 -10.80875,0.34218 -10.32263,0.007 -10.57897,0.0439 -11.80915,1.70039 l -0.67085,0.90332 -0.16,40.69668 -0.16,40.69667 -0.85735,2.34707 c -2.85948,7.8281 -9.31057,12.99542 -17.68693,14.16721 -4.7356,0.66248 -9.95432,-0.52369 -13.89737,-3.15875 -0.98909,-0.66099 -12.41915,-9.73238 -25.40013,-20.15866 -12.98098,-10.42628 -23.67685,-18.95687 -23.76859,-18.95687 -0.0918,0 -0.12695,12.348 -0.0782,27.44 l 0.0886,27.44 0.75225,1.20995 c 1.4571,2.34367 2.0672,2.46981 11.955,2.47184 5.10615,9.6e-4 9.23473,0.14118 9.9415,0.33745 1.28433,0.35666 3.21971,1.86756 3.81352,2.97712 0.67302,1.25755 0.8637,2.89045 0.52695,4.51255 -0.32825,1.58113 -0.68635,1.9637 -19.25288,20.56834 -10.40512,10.42648 -19.35444,19.16255 -19.88737,19.41349 -1.33033,0.6264 -3.00601,0.83329 -4.25533,0.52538 z M 56.96,217.07728 c -0.44,-0.0636 -2.096,-0.2755 -3.68,-0.47097 C 32.535254,214.04628 13.679062,199.65618 5.2009018,179.91476 -4.5509117,157.20763 0.0770044,130.92478 16.957,113.14955 c 7.940136,-8.36124 17.805221,-14.133333 29.10997,-17.032337 2.368832,-0.607469 4.332796,-1.134352 4.364368,-1.170852 0.03158,-0.0365 -0.138586,-1.362364 -0.378128,-2.946364 C 48.458621,81.455504 48.91152,72.255082 51.54448,61.70562 53.413114,54.218568 57.345181,44.966338 61.313037,38.719999 67.533229,28.927951 76.933696,19.365508 86.24,13.363523 104.79306,1.3979596 126.96427,-2.5961541 148.77229,2.0984118 c 12.02641,2.5888978 24.63586,8.8085732 34.55143,17.0426642 7.69264,6.388136 15.72046,16.189425 20.03628,24.462628 0.69208,1.326688 1.09396,1.784947 1.44,1.642042 8.77085,-3.622099 14.91313,-5.108131 22.56,-5.458045 13.38492,-0.61248 27.10156,3.921091 37.44,12.374534 5.90951,4.832035 11.5126,11.821152 14.85436,18.528834 3.40117,6.82696 4.7451,11.683968 5.95068,21.50599 l 0.1813,1.477062 2.78683,0.218727 c 11.23603,0.881869 23.31998,5.640844 32.86683,12.943812 2.97466,2.27549 7.66451,6.93025 10.38314,10.30538 8.93731,11.09564 13.4671,24.03371 13.451,38.41902 -0.0115,10.21247 -1.98668,18.69707 -6.3967,27.47651 -9.5889,19.08954 -27.98228,31.75765 -49.23134,33.90719 -2.0345,0.20581 -14.11172,0.33523 -31.2822,0.33523 h -27.96829 l 1.84219,-2.20409 c 4.61394,-5.52033 7.12368,-11.84038 7.7658,-19.55591 0.16845,-2.024 0.30855,-18.24447 0.31133,-36.04549 l 0.005,-32.3655 6,-0.14527 c 4.98607,-0.12073 6.35149,-0.26032 8.08,-0.82604 6.01045,-1.96713 10.52988,-6.44 12.7217,-12.59062 0.71731,-2.0129 0.8364,-2.87102 0.8364,-6.02707 0,-3.15606 -0.11909,-4.01417 -0.8364,-6.02708 -0.46002,-1.29089 -1.30441,-3.119295 -1.87644,-4.063128 -0.69004,-1.138573 -7.88568,-8.541094 -21.38265,-21.99744 C 225.3493,56.974763 223.33196,55.0609 221.42895,54.149377 c -2.99705,-1.435561 -5.49538,-2.010144 -8.80708,-2.025516 -3.48214,-0.01616 -6.19277,0.626614 -9.26187,2.196287 -2.03965,1.043168 -4.06119,2.965504 -22.60187,21.492742 -19.57998,19.565795 -20.40615,20.439263 -21.51519,22.747106 -1.54269,3.210254 -2.12294,5.659234 -2.12294,8.960004 0,8.47251 5.30627,15.84496 13.28,18.45102 2.14086,0.6997 3.33279,0.86219 7.28,0.99243 l 4.72,0.15575 v 7.66218 7.6622 l -1.04,-0.74016 c -0.572,-0.40708 -5.89778,-4.36914 -11.83506,-8.80456 -5.93728,-4.43543 -11.76928,-8.64228 -12.96,-9.34855 -7.66325,-4.54548 -17.40068,-6.16028 -26.10543,-4.32918 -15.16806,3.1907 -26.8462,15.21499 -29.48755,30.36156 -0.42083,2.41323 -0.49196,7.51139 -0.49196,35.25922 v 32.43808 l -21.36,-0.0436 c -11.748,-0.024 -21.72,-0.0956 -22.16,-0.15913 z M 71.943837,90.665946 c 1.458013,-1.061655 2.295405,-3.133114 2.301709,-5.693754 0.0032,-1.238707 0.147484,-3.620195 0.320963,-5.292195 C 77.260464,53.715777 95.652115,32.511304 120.8,26.375543 c 4.02364,-0.981718 9.66435,-1.735544 12.98667,-1.735544 3.76139,0 5.49677,-0.856056 6.76238,-3.335846 1.31723,-2.580965 0.29309,-5.854496 -2.22275,-7.104702 -2.48268,-1.233727 -12.58803,-0.425331 -20.80851,1.664615 -28.74484,7.307986 -50.47588,32.232691 -53.825556,61.735931 -0.484397,4.26647 -0.425517,9.612496 0.117363,10.655891 1.503606,2.889885 5.748163,4.147488 8.13424,2.410058 z M 158.08,208.2704 c 0,-8.54961 0.0286,-8.98516 0.56,-8.53086 0.308,0.26331 5.024,4.05089 10.48,8.41685 5.456,4.36596 10.204,8.20485 10.55111,8.53086 0.61513,0.57773 0.34966,0.59274 -10.48,0.59274 H 158.08 Z m 834.00781,-5.72274 c -0.75392,-0.38295 -1.67418,-1.20462 -2.08,-1.85724 l -0.72781,-1.17043 -0.0873,-32.53507 -0.0873,-32.53508 -7.75271,-0.10492 c -7.13641,-0.0966 -7.8416,-0.15717 -8.87158,-0.76223 -3.37776,-1.98425 -3.44842,-6.79368 -0.12778,-8.69743 1.19517,-0.6852 1.56701,-0.71495 8.99696,-0.72 l 7.75024,-0.005 0.0898,-23.92 c 0.088,-23.470466 0.10208,-23.941026 0.74704,-25.038911 1.13395,-1.930332 2.43005,-2.561072 5.26269,-2.561072 2.84451,0 4.15376,0.647338 5.16754,2.555008 0.5615,1.05657 0.5925,2.368915 0.5925,25.039995 v 23.925 h 7.5303 c 8.1984,0 9.0643,0.1477 10.3349,1.76299 1.6847,2.14173 1.5427,4.98115 -0.339,6.77909 -1.5547,1.48546 -2.8548,1.69415 -10.5662,1.69613 l -6.96,0.002 v 32.59267 32.59268 l -0.72,1.0579 c -1.23441,1.81367 -2.26718,2.36535 -4.65028,2.4841 -1.71181,0.0853 -2.42522,-0.0328 -3.50195,-0.57969 z M 507.04,202.22954 c -10.39376,-1.17249 -18.57962,-4.8306 -26.37811,-11.78794 -8.00871,-7.14483 -13.31482,-16.43564 -15.4624,-27.07404 -1.01552,-5.0307 -1.00896,-14.81349 0.0131,-19.54825 1.04803,-4.85476 2.11014,-7.87317 4.38409,-12.45931 2.48125,-5.00415 5.3096,-8.87975 9.45808,-12.96 7.02253,-6.90708 15.53284,-11.36742 24.78516,-12.99017 4.3328,-0.75992 12.64028,-0.76637 16.8,-0.013 6.00355,1.08725 11.45734,3.319 16.76115,6.85883 2.81689,1.88004 7.9671,6.78319 10.19264,9.70368 l 1.68621,2.21275 0.16,-6.48603 c 0.12832,-5.20192 0.26438,-6.67625 0.68723,-7.44679 2.15741,-3.93132 7.96109,-4.06159 10.11619,-0.22705 l 0.71658,1.27494 v 42.29232 c 0,46.07107 0.12188,43.05097 -1.81143,44.88018 -2.57318,2.4346 -6.67872,1.92237 -8.66822,-1.08149 -0.86832,-1.31104 -0.88179,-1.40966 -0.98611,-7.219 l -0.10576,-5.8898 -3.41424,3.46764 c -9.42077,9.56813 -19.59706,14.14605 -32.53424,14.63593 -2.112,0.08 -4.992,0.0155 -6.4,-0.14338 z m 14.24,-11.47795 c 11.29459,-2.54392 20.85859,-10.0497 25.43971,-19.96497 1.24211,-2.68833 2.54474,-6.95638 3.08231,-10.09918 0.62924,-3.67844 0.45785,-11.24218 -0.34183,-15.08745 -2.88345,-13.86499 -13.07101,-24.77754 -26.51433,-28.40123 -2.85568,-0.76976 -3.62135,-0.83778 -9.50586,-0.84457 -5.9424,-0.007 -6.62371,0.0534 -9.52874,0.843 -14.5126,3.94447 -25.03872,16.03409 -27.299,31.35382 -1.95533,13.25301 3.97097,27.50329 14.89139,35.80747 4.26195,3.2409 11.11715,6.0884 16.82281,6.98779 2.80048,0.44145 9.77482,0.12127 12.95354,-0.59468 z m 153.6,11.61156 c -5.24819,-0.46768 -10.58685,-1.83657 -14.99226,-3.84418 -5.5175,-2.51441 -12.33062,-8.00922 -16.36774,-13.20068 l -1.76,-2.26323 -0.16,6.31247 c -0.14813,5.84409 -0.21469,6.40785 -0.89706,7.59796 -1.02352,1.78512 -2.61254,2.79445 -4.66771,2.96488 -2.56233,0.21249 -4.53142,-0.93494 -5.75664,-3.35449 -0.47264,-0.93334 -0.51859,-6.33447 -0.51859,-60.93896 V 75.722061 l 0.67072,-1.385555 c 0.71254,-1.471888 2.46688,-2.734243 4.3425,-3.124681 2.15126,-0.447818 4.93404,0.983203 6.11827,3.146291 0.50173,0.916445 0.55616,3.032582 0.63837,24.814815 l 0.0899,23.812929 2.7416,-2.93809 c 7.3666,-7.89454 15.5098,-12.52942 25.47453,-14.49938 4.66032,-0.9213 12.89824,-0.98851 17.50282,-0.14278 9.05222,1.66262 16.7927,5.65254 23.63801,12.18448 10.56986,10.086 15.42724,21.49161 15.42141,36.21097 -0.003,7.28282 -1.01376,12.74694 -3.47139,18.76396 -2.44275,5.98057 -5.75968,10.79365 -11.09674,16.10205 -7.13798,7.09968 -15.5174,11.51241 -24.78998,13.05477 -3.14582,0.52327 -9.6408,0.86581 -12.16,0.64131 z m 12,-12.40377 c 6.47094,-1.68561 13.68416,-6.06584 17.85478,-10.84234 11.75901,-13.46726 13.07092,-32.1157 3.31252,-47.08642 -9.13453,-14.01359 -26.24474,-19.98559 -42.1273,-14.70373 -9.18438,3.05433 -16.7856,9.41157 -21.0417,17.59812 -5.58995,10.7523 -5.63859,25.21613 -0.12163,36.18879 4.20784,8.36897 12.82071,15.74621 21.3985,18.3286 4.34742,1.30881 6.66227,1.58574 12.24483,1.46487 4.40838,-0.0954 5.80826,-0.25193 8.48,-0.94789 z m 89.76,12.28771 c -10.24138,-1.00152 -17.26557,-3.98801 -23.57181,-10.02209 -6.10454,-5.84106 -9.28729,-12.64549 -11.05641,-23.63759 -0.65287,-4.05655 -0.6929,-5.54821 -0.80989,-30.18741 -0.0677,-14.256 -0.0347,-26.39108 0.0733,-26.96685 0.24474,-1.30464 1.89962,-3.22843 3.26954,-3.80082 2.12083,-0.88614 4.64694,-0.44071 6.28384,1.10802 1.88803,1.78639 1.81081,0.8026 1.81846,23.16375 0.01,28.10468 0.45674,36.54481 2.20477,41.61707 1.31929,3.82819 2.9224,6.35388 5.94016,9.35882 3.93686,3.92011 7.0343,5.66546 12.89053,7.26354 2.05257,0.56012 3.41052,0.67882 7.9175,0.69208 5.95952,0.0175 7.74186,-0.27894 12.23594,-2.03537 6.39347,-2.49876 12.1807,-8.43295 14.37356,-14.73859 1.67556,-4.81803 1.79178,-6.91143 1.99895,-36.0055 l 0.19155,-26.90384 0.88035,-1.32984 c 2.33187,-3.52244 7.74906,-3.52183 10.0793,0.001 l 0.88035,1.33096 -0.0141,25.30272 c -0.015,26.63447 -0.12202,29.04696 -1.6088,36.24495 -3.32499,16.09722 -13.98826,26.43557 -29.95898,29.04611 -3.60467,0.58921 -10.56179,0.83674 -14.01801,0.49876 z m 129.50195,-0.005 c -10.29926,-0.99124 -18.31059,-4.56797 -24.3199,-10.85785 -6.64429,-6.95451 -9.59984,-14.82006 -10.77069,-28.66401 -0.1816,-2.14737 -0.32621,-14.24717 -0.32806,-27.45028 -0.004,-25.66402 -0.0628,-24.79021 1.79728,-26.52936 1.65824,-1.55044 4.17539,-1.99353 6.29468,-1.10803 1.20871,0.50503 3.02996,2.46592 3.24477,3.49354 0.0821,0.39277 0.22029,11.80213 0.30707,25.35413 0.15472,24.1573 0.35344,29.32289 1.30832,34.01041 2.50903,12.31666 13.60048,20.54957 27.68458,20.54957 11.42298,0 21.10387,-5.52338 25.42416,-14.50562 2.69069,-5.59417 2.79824,-6.95108 3.0225,-38.13437 0.18476,-25.68793 0.2207,-26.93514 0.81027,-28.12316 1.92672,-3.88235 7.90099,-4.1443 10.34272,-0.45349 l 0.88035,1.33072 v 24.98296 c 0,26.13111 -0.1088,28.78345 -1.47392,35.92958 -1.12083,5.86739 -2.76563,10.08815 -5.65597,14.51382 -5.30765,8.1271 -13.8695,13.4381 -24.45209,15.16791 -3.62989,0.59333 -10.56116,0.83566 -14.11607,0.49352 z M 371.04,199.54644 c -1.19254,-0.53231 -2.56995,-1.97704 -3.01965,-3.16728 -0.23417,-0.61982 -0.34035,-14.02606 -0.34035,-42.97589 0,-45.83382 -0.12166,-42.83391 1.81142,-44.66292 2.21517,-2.09588 5.68199,-2.09588 7.89716,0 1.71385,1.62156 1.81142,2.08935 1.81142,8.68375 0,3.35274 0.12275,6.0959 0.2728,6.0959 0.15002,0 0.92826,-0.83431 1.72938,-1.85402 2.23974,-2.85082 6.82294,-7.22987 9.83782,-9.39962 12.37773,-8.90797 29.15731,-10.03236 40.99552,-2.74707 1.47411,0.90718 3.92592,2.85029 5.44845,4.31802 6.16605,5.94406 8.9944,12.40977 10.41997,23.82024 0.50896,4.07396 0.57267,7.56766 0.57427,31.48533 l 0.003,26.90289 -0.88035,1.33079 c -2.28874,3.45975 -7.48058,3.44304 -9.78077,-0.0315 l -0.85888,-1.29739 -0.19005,-27.86384 c -0.20646,-30.26775 -0.2664,-31.32914 -2.0839,-36.89693 -1.99805,-6.12082 -5.69005,-10.69751 -10.59424,-13.13288 -3.8185,-1.89622 -6.6824,-2.47784 -12.09181,-2.4557 -4.89203,0.02 -7.01831,0.4066 -11.28381,2.05157 -4.74138,1.82846 -10.36307,6.22886 -13.91254,10.8901 -2.08013,2.73165 -4.85367,8.47032 -5.64503,11.67999 -1.44931,5.87831 -1.94224,15.75205 -1.95193,39.09917 -0.004,10.55238 -0.1234,16.36807 -0.34704,16.96 -0.46317,1.22589 -1.8441,2.64743 -3.08938,3.18024 -1.29274,0.55313 -3.47542,0.54715 -4.73027,-0.013 z m 210.23405,0.008 c -1.31639,-0.57359 -2.92794,-2.48014 -3.33482,-3.94531 -0.46704,-1.68184 -0.46704,-82.33564 0,-84.01749 0.4177,-1.50406 2.03779,-3.38746 3.40551,-3.95892 2.54688,-1.06415 5.88432,-0.0613 7.39638,2.22242 0.81139,1.22549 0.86774,1.5611 1.01888,6.06863 l 0.16,4.77139 1.59926,-2.18739 c 3.65732,-5.0022 8.23236,-9.09044 12.67012,-11.322 3.36281,-1.69099 5.94595,-2.32553 9.57062,-2.35097 3.59043,-0.0252 5.06122,0.4097 6.35014,1.87768 2.56077,2.91658 1.90778,7.14041 -1.39961,9.05282 -1.18883,0.68742 -1.4992,0.72146 -4.82618,0.52928 -2.85251,-0.16477 -3.92499,-0.098 -5.42329,0.33754 -7.28781,2.11863 -12.53613,7.8698 -15.63066,17.12827 -2.43216,7.27667 -2.78195,11.84488 -3.02819,39.54791 l -0.20221,22.74791 -0.91571,1.32084 c -1.58791,2.29035 -4.91043,3.26663 -7.41024,2.17739 z m 263.3071,-0.17596 c -0.84233,-0.38244 -1.67299,-1.11281 -2.24,-1.96956 L 841.44,196.04721 841.3522,136.1838 c -0.0975,-66.475646 -0.25565,-61.513141 2.02439,-63.515032 3.24467,-2.848864 8.22595,-1.377011 9.42899,2.786045 0.23952,0.828896 0.31427,19.14742 0.24851,60.888977 l -0.0941,59.7034 -0.88035,1.33027 c -1.6241,2.45409 -4.69536,3.27368 -7.4985,2.00102 z" id="path295"></path></g></g></svg>